<?xml version="1.0" encoding="UTF-8"?>
<svg width="132px" height="87px" viewBox="0 0 132 87" version="1.1" xmlns="http://www.w3.org/2000/svg" xmlns:xlink="http://www.w3.org/1999/xlink">
    <!-- Generator: Sketch 49.3 (51167) - http://www.bohemiancoding.com/sketch -->
    <title>Logo</title>
    <desc>Created with Sketch.</desc>
    <defs></defs>
    <g id="Page-1" stroke="none" stroke-width="1" fill="none" fill-rule="evenodd">
        <g id="Register-Page" transform="translate(-511.000000, -49.000000)">
            <g id="Logo" transform="translate(513.000000, 51.000000)">
                <path d="M102.5561,28.9592 C109.3741,50.4322 97.4941,73.3662 76.0211,80.1852 C54.5481,87.0032 31.6141,75.1232 24.7951,53.6502 C17.9771,32.1772 29.8571,9.2422 51.3301,2.4242 C72.8031,-4.3948 95.7381,7.4852 102.5561,28.9592 Z" id="Stroke-1" stroke="#32AFAA" stroke-width="5"></path>
                <path d="M126.6757,21.2424 C128.9977,28.5544 102.6657,43.4384 67.8627,54.4904 C33.0597,65.5414 2.9637,68.5724 0.6427,61.2624 C-1.6793,53.9504 24.6527,39.0644 59.4557,28.0134 C94.2587,16.9634 124.3547,13.9314 126.6757,21.2424 Z" id="Stroke-3" stroke="#32AFAA" stroke-width="5"></path>
                <path d="M49.3823,30.4084 C50.7063,34.5784 48.3993,39.0324 44.2293,40.3564 C40.0593,41.6804 35.6053,39.3734 34.2813,35.2034 C32.9573,31.0334 35.2643,26.5794 39.4343,25.2554 C43.6043,23.9304 48.0583,26.2384 49.3823,30.4084" id="Fill-5" fill="#32AFAA"></path>
                <path d="M93.9609,43.9729 C95.2849,48.1429 92.9779,52.5969 88.8079,53.9209 C84.6379,55.2439 80.1839,52.9379 78.8599,48.7679 C77.5359,44.5979 79.8429,40.1439 84.0129,38.8199 C88.1829,37.4949 92.6369,39.8029 93.9609,43.9729" id="Fill-7" fill="#32AFAA"></path>
            </g>
        </g>
    </g>
</svg>